<mxfile host="app.diagrams.net" modified="2024-04-21T00:47:29.449Z" agent="Mozilla/5.0 (Windows NT 10.0; Win64; x64) AppleWebKit/537.36 (KHTML, like Gecko) Chrome/123.0.0.0 Safari/537.36" etag="BvsxKPo4zeQyLKRf1D2A" version="24.2.1" type="google">
  <diagram name="Page-1" id="DbdB9JWWKM6HwhgZqgJb">
    <mxGraphModel dx="1477" dy="703" grid="1" gridSize="10" guides="1" tooltips="1" connect="1" arrows="1" fold="1" page="1" pageScale="1" pageWidth="850" pageHeight="1100" math="0" shadow="0">
      <root>
        <mxCell id="0" />
        <mxCell id="1" parent="0" />
        <mxCell id="i2jKXpyaF1H3Rb2t1paW-84" value="" style="edgeStyle=orthogonalEdgeStyle;rounded=0;orthogonalLoop=1;jettySize=auto;html=1;" parent="1" source="i2jKXpyaF1H3Rb2t1paW-82" target="i2jKXpyaF1H3Rb2t1paW-83" edge="1">
          <mxGeometry relative="1" as="geometry" />
        </mxCell>
        <mxCell id="i2jKXpyaF1H3Rb2t1paW-89" style="edgeStyle=orthogonalEdgeStyle;rounded=0;orthogonalLoop=1;jettySize=auto;html=1;exitX=0.75;exitY=1;exitDx=0;exitDy=0;entryX=0.5;entryY=0;entryDx=0;entryDy=0;" parent="1" source="i2jKXpyaF1H3Rb2t1paW-82" target="i2jKXpyaF1H3Rb2t1paW-86" edge="1">
          <mxGeometry relative="1" as="geometry">
            <Array as="points">
              <mxPoint x="588" y="1110" />
              <mxPoint x="808" y="1110" />
            </Array>
          </mxGeometry>
        </mxCell>
        <mxCell id="i2jKXpyaF1H3Rb2t1paW-92" style="edgeStyle=orthogonalEdgeStyle;rounded=0;orthogonalLoop=1;jettySize=auto;html=1;entryX=0.5;entryY=0;entryDx=0;entryDy=0;" parent="1" target="i2jKXpyaF1H3Rb2t1paW-90" edge="1">
          <mxGeometry relative="1" as="geometry">
            <mxPoint x="538" y="1075" as="sourcePoint" />
            <Array as="points">
              <mxPoint x="528" y="1075" />
              <mxPoint x="528" y="1105" />
              <mxPoint x="308" y="1105" />
            </Array>
          </mxGeometry>
        </mxCell>
        <mxCell id="i2jKXpyaF1H3Rb2t1paW-95" value="" style="edgeStyle=orthogonalEdgeStyle;rounded=0;orthogonalLoop=1;jettySize=auto;html=1;" parent="1" source="i2jKXpyaF1H3Rb2t1paW-82" target="i2jKXpyaF1H3Rb2t1paW-94" edge="1">
          <mxGeometry relative="1" as="geometry" />
        </mxCell>
        <mxCell id="i2jKXpyaF1H3Rb2t1paW-97" value="" style="edgeStyle=orthogonalEdgeStyle;rounded=0;orthogonalLoop=1;jettySize=auto;html=1;" parent="1" source="i2jKXpyaF1H3Rb2t1paW-82" edge="1">
          <mxGeometry relative="1" as="geometry">
            <mxPoint x="88" y="1145" as="targetPoint" />
          </mxGeometry>
        </mxCell>
        <mxCell id="i2jKXpyaF1H3Rb2t1paW-132" style="edgeStyle=orthogonalEdgeStyle;rounded=0;orthogonalLoop=1;jettySize=auto;html=1;exitX=0;exitY=0.5;exitDx=0;exitDy=0;entryX=0.5;entryY=0;entryDx=0;entryDy=0;" parent="1" source="i2jKXpyaF1H3Rb2t1paW-82" target="i2jKXpyaF1H3Rb2t1paW-96" edge="1">
          <mxGeometry relative="1" as="geometry" />
        </mxCell>
        <mxCell id="i2jKXpyaF1H3Rb2t1paW-82" value="Manajemen pengiriman" style="rounded=1;whiteSpace=wrap;html=1;" parent="1" vertex="1">
          <mxGeometry x="498" y="1015" width="120" height="60" as="geometry" />
        </mxCell>
        <mxCell id="i2jKXpyaF1H3Rb2t1paW-98" value="" style="edgeStyle=orthogonalEdgeStyle;rounded=0;orthogonalLoop=1;jettySize=auto;html=1;" parent="1" source="i2jKXpyaF1H3Rb2t1paW-83" target="i2jKXpyaF1H3Rb2t1paW-82" edge="1">
          <mxGeometry relative="1" as="geometry" />
        </mxCell>
        <mxCell id="i2jKXpyaF1H3Rb2t1paW-102" style="edgeStyle=orthogonalEdgeStyle;rounded=0;orthogonalLoop=1;jettySize=auto;html=1;exitX=1;exitY=0.5;exitDx=0;exitDy=0;entryX=0;entryY=0.5;entryDx=0;entryDy=0;" parent="1" source="i2jKXpyaF1H3Rb2t1paW-83" target="i2jKXpyaF1H3Rb2t1paW-86" edge="1">
          <mxGeometry relative="1" as="geometry" />
        </mxCell>
        <mxCell id="i2jKXpyaF1H3Rb2t1paW-105" style="edgeStyle=orthogonalEdgeStyle;rounded=0;orthogonalLoop=1;jettySize=auto;html=1;exitX=0;exitY=0.5;exitDx=0;exitDy=0;entryX=1;entryY=0.5;entryDx=0;entryDy=0;" parent="1" source="i2jKXpyaF1H3Rb2t1paW-83" target="i2jKXpyaF1H3Rb2t1paW-90" edge="1">
          <mxGeometry relative="1" as="geometry" />
        </mxCell>
        <mxCell id="i2jKXpyaF1H3Rb2t1paW-112" value="" style="edgeStyle=orthogonalEdgeStyle;rounded=0;orthogonalLoop=1;jettySize=auto;html=1;exitX=0.25;exitY=1;exitDx=0;exitDy=0;" parent="1" source="i2jKXpyaF1H3Rb2t1paW-83" target="i2jKXpyaF1H3Rb2t1paW-111" edge="1">
          <mxGeometry relative="1" as="geometry" />
        </mxCell>
        <mxCell id="i2jKXpyaF1H3Rb2t1paW-114" value="" style="edgeStyle=orthogonalEdgeStyle;rounded=0;orthogonalLoop=1;jettySize=auto;html=1;" parent="1" source="i2jKXpyaF1H3Rb2t1paW-83" target="i2jKXpyaF1H3Rb2t1paW-86" edge="1">
          <mxGeometry relative="1" as="geometry" />
        </mxCell>
        <mxCell id="i2jKXpyaF1H3Rb2t1paW-116" style="edgeStyle=orthogonalEdgeStyle;rounded=0;orthogonalLoop=1;jettySize=auto;html=1;exitX=0.75;exitY=1;exitDx=0;exitDy=0;entryX=0.5;entryY=0;entryDx=0;entryDy=0;" parent="1" source="i2jKXpyaF1H3Rb2t1paW-83" target="i2jKXpyaF1H3Rb2t1paW-115" edge="1">
          <mxGeometry relative="1" as="geometry" />
        </mxCell>
        <mxCell id="i2jKXpyaF1H3Rb2t1paW-83" value="Manajemen order" style="rounded=1;whiteSpace=wrap;html=1;" parent="1" vertex="1">
          <mxGeometry x="498" y="1145" width="120" height="60" as="geometry" />
        </mxCell>
        <mxCell id="i2jKXpyaF1H3Rb2t1paW-103" style="edgeStyle=orthogonalEdgeStyle;rounded=0;orthogonalLoop=1;jettySize=auto;html=1;exitX=0;exitY=0.5;exitDx=0;exitDy=0;entryX=1;entryY=0.5;entryDx=0;entryDy=0;" parent="1" source="i2jKXpyaF1H3Rb2t1paW-86" target="i2jKXpyaF1H3Rb2t1paW-83" edge="1">
          <mxGeometry relative="1" as="geometry" />
        </mxCell>
        <mxCell id="i2jKXpyaF1H3Rb2t1paW-122" style="edgeStyle=orthogonalEdgeStyle;rounded=0;orthogonalLoop=1;jettySize=auto;html=1;exitX=0;exitY=1;exitDx=0;exitDy=0;entryX=1;entryY=1;entryDx=0;entryDy=0;" parent="1" source="i2jKXpyaF1H3Rb2t1paW-86" target="i2jKXpyaF1H3Rb2t1paW-90" edge="1">
          <mxGeometry relative="1" as="geometry" />
        </mxCell>
        <mxCell id="i2jKXpyaF1H3Rb2t1paW-128" style="edgeStyle=orthogonalEdgeStyle;rounded=0;orthogonalLoop=1;jettySize=auto;html=1;exitX=1;exitY=0.5;exitDx=0;exitDy=0;entryX=0;entryY=0.5;entryDx=0;entryDy=0;" parent="1" source="i2jKXpyaF1H3Rb2t1paW-86" target="i2jKXpyaF1H3Rb2t1paW-94" edge="1">
          <mxGeometry relative="1" as="geometry" />
        </mxCell>
        <mxCell id="i2jKXpyaF1H3Rb2t1paW-86" value="Layanan pelanggan" style="rounded=1;whiteSpace=wrap;html=1;" parent="1" vertex="1">
          <mxGeometry x="748" y="1145" width="120" height="60" as="geometry" />
        </mxCell>
        <mxCell id="i2jKXpyaF1H3Rb2t1paW-104" style="edgeStyle=orthogonalEdgeStyle;rounded=0;orthogonalLoop=1;jettySize=auto;html=1;exitX=1;exitY=0.5;exitDx=0;exitDy=0;entryX=0;entryY=0.5;entryDx=0;entryDy=0;" parent="1" source="i2jKXpyaF1H3Rb2t1paW-90" target="i2jKXpyaF1H3Rb2t1paW-83" edge="1">
          <mxGeometry relative="1" as="geometry" />
        </mxCell>
        <mxCell id="i2jKXpyaF1H3Rb2t1paW-120" style="edgeStyle=orthogonalEdgeStyle;rounded=0;orthogonalLoop=1;jettySize=auto;html=1;exitX=1;exitY=1;exitDx=0;exitDy=0;entryX=0;entryY=1;entryDx=0;entryDy=0;" parent="1" source="i2jKXpyaF1H3Rb2t1paW-90" target="i2jKXpyaF1H3Rb2t1paW-86" edge="1">
          <mxGeometry relative="1" as="geometry" />
        </mxCell>
        <mxCell id="i2jKXpyaF1H3Rb2t1paW-124" value="" style="edgeStyle=orthogonalEdgeStyle;rounded=0;orthogonalLoop=1;jettySize=auto;html=1;" parent="1" source="i2jKXpyaF1H3Rb2t1paW-90" target="i2jKXpyaF1H3Rb2t1paW-123" edge="1">
          <mxGeometry relative="1" as="geometry" />
        </mxCell>
        <mxCell id="i2jKXpyaF1H3Rb2t1paW-126" style="edgeStyle=orthogonalEdgeStyle;rounded=0;orthogonalLoop=1;jettySize=auto;html=1;exitX=0.5;exitY=0;exitDx=0;exitDy=0;entryX=0.25;entryY=1;entryDx=0;entryDy=0;" parent="1" source="i2jKXpyaF1H3Rb2t1paW-90" target="i2jKXpyaF1H3Rb2t1paW-82" edge="1">
          <mxGeometry relative="1" as="geometry">
            <Array as="points">
              <mxPoint x="308" y="1105" />
              <mxPoint x="528" y="1105" />
            </Array>
          </mxGeometry>
        </mxCell>
        <mxCell id="i2jKXpyaF1H3Rb2t1paW-90" value="Manajemen gudang" style="rounded=1;whiteSpace=wrap;html=1;" parent="1" vertex="1">
          <mxGeometry x="248" y="1145" width="120" height="60" as="geometry" />
        </mxCell>
        <mxCell id="i2jKXpyaF1H3Rb2t1paW-94" value="Aplikasi mobile" style="rounded=1;whiteSpace=wrap;html=1;" parent="1" vertex="1">
          <mxGeometry x="968" y="1145" width="120" height="60" as="geometry" />
        </mxCell>
        <mxCell id="i2jKXpyaF1H3Rb2t1paW-100" style="edgeStyle=orthogonalEdgeStyle;rounded=0;orthogonalLoop=1;jettySize=auto;html=1;exitX=0.5;exitY=0;exitDx=0;exitDy=0;entryX=0;entryY=0.5;entryDx=0;entryDy=0;" parent="1" target="i2jKXpyaF1H3Rb2t1paW-82" edge="1">
          <mxGeometry relative="1" as="geometry">
            <mxPoint x="88" y="1145" as="sourcePoint" />
            <Array as="points">
              <mxPoint x="88" y="1045" />
            </Array>
          </mxGeometry>
        </mxCell>
        <mxCell id="i2jKXpyaF1H3Rb2t1paW-96" value="Perusahaan logistik" style="rounded=1;whiteSpace=wrap;html=1;" parent="1" vertex="1">
          <mxGeometry x="28" y="1135" width="120" height="60" as="geometry" />
        </mxCell>
        <mxCell id="i2jKXpyaF1H3Rb2t1paW-133" style="edgeStyle=orthogonalEdgeStyle;rounded=0;orthogonalLoop=1;jettySize=auto;html=1;exitX=0.5;exitY=0;exitDx=0;exitDy=0;entryX=0.25;entryY=1;entryDx=0;entryDy=0;" parent="1" source="i2jKXpyaF1H3Rb2t1paW-111" target="i2jKXpyaF1H3Rb2t1paW-83" edge="1">
          <mxGeometry relative="1" as="geometry" />
        </mxCell>
        <mxCell id="i2jKXpyaF1H3Rb2t1paW-111" value="Sistem pembayaran" style="rounded=1;whiteSpace=wrap;html=1;" parent="1" vertex="1">
          <mxGeometry x="418" y="1295" width="120" height="60" as="geometry" />
        </mxCell>
        <mxCell id="i2jKXpyaF1H3Rb2t1paW-117" style="edgeStyle=orthogonalEdgeStyle;rounded=0;orthogonalLoop=1;jettySize=auto;html=1;exitX=0.5;exitY=0;exitDx=0;exitDy=0;entryX=0.75;entryY=1;entryDx=0;entryDy=0;" parent="1" source="i2jKXpyaF1H3Rb2t1paW-115" target="i2jKXpyaF1H3Rb2t1paW-83" edge="1">
          <mxGeometry relative="1" as="geometry" />
        </mxCell>
        <mxCell id="i2jKXpyaF1H3Rb2t1paW-115" value="Platform e-commerce" style="rounded=1;whiteSpace=wrap;html=1;" parent="1" vertex="1">
          <mxGeometry x="578" y="1295" width="120" height="60" as="geometry" />
        </mxCell>
        <mxCell id="i2jKXpyaF1H3Rb2t1paW-123" value="Sistem keuangan" style="rounded=1;whiteSpace=wrap;html=1;" parent="1" vertex="1">
          <mxGeometry x="248" y="1295" width="120" height="60" as="geometry" />
        </mxCell>
        <mxCell id="i2jKXpyaF1H3Rb2t1paW-131" style="edgeStyle=orthogonalEdgeStyle;rounded=0;orthogonalLoop=1;jettySize=auto;html=1;exitX=0.5;exitY=0;exitDx=0;exitDy=0;entryX=0.5;entryY=1;entryDx=0;entryDy=0;" parent="1" source="i2jKXpyaF1H3Rb2t1paW-129" target="i2jKXpyaF1H3Rb2t1paW-94" edge="1">
          <mxGeometry relative="1" as="geometry" />
        </mxCell>
        <mxCell id="i2jKXpyaF1H3Rb2t1paW-134" style="edgeStyle=orthogonalEdgeStyle;rounded=0;orthogonalLoop=1;jettySize=auto;html=1;exitX=0.25;exitY=0;exitDx=0;exitDy=0;entryX=0.5;entryY=1;entryDx=0;entryDy=0;" parent="1" source="i2jKXpyaF1H3Rb2t1paW-129" target="i2jKXpyaF1H3Rb2t1paW-86" edge="1">
          <mxGeometry relative="1" as="geometry" />
        </mxCell>
        <mxCell id="i2jKXpyaF1H3Rb2t1paW-135" style="edgeStyle=orthogonalEdgeStyle;rounded=0;orthogonalLoop=1;jettySize=auto;html=1;exitX=0.5;exitY=1;exitDx=0;exitDy=0;entryX=0.5;entryY=1;entryDx=0;entryDy=0;" parent="1" source="i2jKXpyaF1H3Rb2t1paW-129" target="i2jKXpyaF1H3Rb2t1paW-111" edge="1">
          <mxGeometry relative="1" as="geometry" />
        </mxCell>
        <mxCell id="i2jKXpyaF1H3Rb2t1paW-129" value="Sistem pelanggan" style="rounded=1;whiteSpace=wrap;html=1;" parent="1" vertex="1">
          <mxGeometry x="968" y="1295" width="120" height="60" as="geometry" />
        </mxCell>
      </root>
    </mxGraphModel>
  </diagram>
</mxfile>
